<svg xmlns="http://www.w3.org/2000/svg" version="1.1" xmlns:xlink="http://www.w3.org/1999/xlink" xmlns:svgjs="http://svgjs.dev/svgjs" width="1000" height="1000" viewBox="0 0 1000 1000"><rect width="1000" height="1000" fill="#000000"></rect><g transform="matrix(0.7,0,0,0.7,150.1383828163918,147.48566801619438)"><svg viewBox="0 0 245 247" data-background-color="#1f2937" preserveAspectRatio="xMidYMid meet" height="1008" width="1000" xmlns="http://www.w3.org/2000/svg" xmlns:xlink="http://www.w3.org/1999/xlink"><g id="tight-bounds" transform="matrix(1,0,0,1,-0.048433985737119656,-0.09999999999999432)"><svg viewBox="0 0 245.09686797147427 247.2" height="247.2" width="245.09686797147427"><g><svg viewBox="0 0 245.09686797147427 247.2" height="247.2" width="245.09686797147427"><g><svg viewBox="0 0 395.52 398.9138858003657" height="247.2" width="245.09686797147427"><g transform="matrix(1,0,0,1,0,151.56106119189602)"><svg viewBox="0 0 395.52 247.35282460846966" height="247.35282460846966" width="395.52"><g id="textblocktransform"><svg viewBox="0 0 395.52 247.35282460846966" height="247.35282460846966" width="395.52" id="textblock"><g><svg viewBox="0 0 395.52 167.8452696006995" height="167.8452696006995" width="395.52"><g transform="matrix(1,0,0,1,0,0)"><svg width="395.52" viewBox="1.29 -35.55 83.77 35.55" height="167.8452696006995" data-palette-color="#ffffff"><path d="M12.6 0L1.29 0 1.29-3.76 3.88-4.13 15.65-35.55 21.63-35.55 33.25-4.13 35.84-3.76 35.84 0 24.54 0 24.54-3.76 27.08-4.22 25.2-9.81 11.96-9.81 10.03-4.22 12.6-3.76 12.6 0ZM18.19-27.64L13.57-14.53 23.61-14.53 18.99-27.69 18.68-28.64 18.53-28.64 18.19-27.64ZM52.78 0L38.89 0 38.89-3.76 42.75-4.49 42.75-31.03 38.89-31.76 38.89-35.55 42.75-35.55 51.56-35.55 61.98-9.84 62.13-9.84 72.24-35.55 85.06-35.55 85.06-31.76 81.17-31.03 81.17-4.49 85.06-3.76 85.06 0 71.16 0 71.16-3.76 75.24-4.49 75.24-12.77 75.29-28.32 75.17-28.34 64.16-0.81 59.69-0.81 48.36-28.2 48.24-28.17 48.56-13.18 48.56-4.49 52.78-3.76 52.78 0Z" opacity="1" transform="matrix(1,0,0,1,0,0)" fill="#ffffff" class="wordmark-text-0" data-fill-palette-color="primary" id="text-0"></path></svg></g></svg></g><g transform="matrix(1,0,0,1,0,207.46950946695426)"><svg viewBox="0 0 395.52 39.88331514151542" height="39.88331514151542" width="395.52"><g transform="matrix(1,0,0,1,0,0)"><svg width="395.52" viewBox="1.76 -37.99 384.68 38.800000000000004" height="39.88331514151542" data-palette-color="#0a8151"><path d="M35.01-27.25L29.76-27.25Q28.13-30.03 25.43-31.62 22.73-33.2 19.41-33.2L19.41-33.2Q16.58-33.2 14.23-32.01 11.89-30.81 10.22-28.8 8.54-26.78 7.62-24.13 6.69-21.48 6.69-18.55L6.69-18.55Q6.69-15.09 7.71-12.41 8.74-9.74 10.39-7.97 12.04-6.2 14.31-5.02 16.58-3.83 19.41-3.83L19.41-3.83Q23.27-3.83 26.12-5.7 28.98-7.57 31.01-11.84L31.01-11.84 35.3-9.81Q34.38-7.18 32.15-4.72 29.93-2.27 26.67-0.77 23.41 0.73 19.46 0.73L19.46 0.73Q15.67 0.73 12.5-0.7 9.33-2.12 6.85-4.76 4.37-7.4 3.06-11.01 1.76-14.62 1.76-18.55L1.76-18.55Q1.76-22.51 3.06-26.03 4.37-29.54 6.73-32.14 9.08-34.74 12.34-36.24 15.6-37.74 19.41-37.74L19.41-37.74Q22.8-37.74 25.27-36.78 27.73-35.82 29.46-34.48 31.18-33.15 32.42-31.59L32.42-31.59 35.01-31.59 35.01-27.25ZM39.08-33.79L39.08-37.99 47.29-37.99 47.29-4.2 51.1-4.2 51.1 0 39.08 0 39.08-4.2 42.75-4.2 42.75-33.79 39.08-33.79ZM55.2-12.65L55.2-12.65Q55.22-15.65 56.16-18.12 57.1-20.58 58.78-22.35 60.47-24.12 62.79-25.07 65.11-26.03 67.89-26.03L67.89-26.03Q70.7-26.03 73.03-25.07 75.36-24.12 77.02-22.38 78.68-20.63 79.61-18.16 80.54-15.7 80.54-12.7L80.54-12.7Q80.54-9.74 79.61-7.26 78.68-4.79 77.02-3 75.36-1.22 73.03-0.23 70.7 0.76 67.89 0.76L67.89 0.76Q65.03 0.76 62.71-0.22 60.4-1.2 58.74-2.97 57.08-4.74 56.15-7.2 55.22-9.67 55.2-12.65ZM60-12.65L60-12.65Q60-10.47 60.63-8.72 61.25-6.96 62.34-5.73 63.42-4.49 64.85-3.82 66.28-3.15 67.89-3.15L67.89-3.15Q69.58-3.15 71.03-3.81 72.48-4.47 73.55-5.7 74.63-6.93 75.24-8.69 75.85-10.45 75.85-12.65L75.85-12.65Q75.85-14.94 75.24-16.72 74.63-18.51 73.57-19.7 72.5-20.9 71.04-21.51 69.58-22.12 67.89-22.12L67.89-22.12Q66.28-22.12 64.85-21.51 63.42-20.9 62.34-19.7 61.25-18.51 60.63-16.72 60-14.94 60-12.65ZM100.68-21.09L100.68-25.29 108.83-25.29 108.83-4.2 111.64-4.2 111.64 0 104.26 0 104.26-2.34Q102.56-1.03 100.54-0.29 98.53 0.44 96.23 0.44L96.23 0.44Q94.33 0.44 92.78-0.11 91.23-0.66 90.14-1.82 89.06-2.98 88.47-4.76 87.88-6.54 87.88-9.01L87.88-9.01 87.88-21.09 84.47-21.09 84.47-25.29 92.62-25.29 92.62-9.55Q92.62-6.64 93.96-5.15 95.31-3.66 97.82-3.66L97.82-3.66Q99.31-3.66 100.96-4.2 102.6-4.74 104.07-5.69L104.07-5.69 104.07-21.09 100.68-21.09ZM133.32-33.79L133.32-37.99 141.3-37.99 141.3-4.2 145.01-4.2 145.01 0 136.76 0 136.76-2.08Q135.54-0.83 133.93-0.13 132.31 0.56 130.26 0.56L130.26 0.56Q127.7 0.56 125.49-0.33 123.28-1.22 121.66-2.94 120.03-4.66 119.12-7.17 118.2-9.67 118.2-12.89L118.2-12.89Q118.2-15.82 119.08-18.23 119.96-20.63 121.57-22.33 123.18-24.02 125.45-24.96 127.72-25.9 130.51-25.9L130.51-25.9Q132.34-25.9 133.85-25.5 135.37-25.1 136.76-24.1L136.76-24.1 136.76-33.79 133.32-33.79ZM130.85-3.39L130.85-3.39Q132.88-3.39 134.24-3.99 135.61-4.59 136.76-5.79L136.76-5.79 136.76-19.95Q135.54-20.97 133.95-21.44 132.36-21.9 130.7-21.9L130.7-21.9Q129.09-21.9 127.68-21.3 126.26-20.7 125.2-19.56 124.14-18.41 123.53-16.75 122.91-15.09 122.91-12.94L122.91-12.94Q122.91-10.6 123.5-8.81 124.09-7.03 125.14-5.82 126.19-4.61 127.65-4 129.12-3.39 130.85-3.39ZM146.91 0Q146.91 0 146.91 0ZM180.31-26.95Q180.31-29.1 179.53-30.18 178.74-31.25 177.8-31.82 176.86-32.4 175.74-32.7 174.62-33.01 173.5-33.01L173.5-33.01Q171.64-33.01 170.25-32.58 168.86-32.15 167.94-31.42 167.03-30.69 166.56-29.71 166.1-28.74 166.1-27.66L166.1-27.66Q166.1-26.05 166.67-25.06 167.25-24.07 168.12-23.47 169-22.88 170.07-22.53 171.13-22.19 172.1-21.85L172.1-21.85 177.04-20.24Q179.26-19.53 180.95-18.63 182.65-17.72 183.8-16.49 184.95-15.26 185.54-13.65 186.14-12.04 186.14-9.91L186.14-9.91Q186.14-7.62 185.2-5.66 184.26-3.71 182.58-2.27 180.89-0.83 178.56-0.01 176.23 0.81 173.45 0.81L173.45 0.81Q170.59 0.81 168.56 0.16 166.54-0.49 165.16-1.57 163.78-2.66 162.95-4.05 162.12-5.44 161.65-6.91L161.65-6.91 159.8-6.91 159.8-11.11 165.95-11.11Q165.95-8.4 166.53-7.28 167.1-6.15 168.12-5.41 169.15-4.66 170.57-4.28 171.98-3.91 173.69-3.91L173.69-3.91Q175.35-3.91 176.68-4.3 178.01-4.69 178.95-5.43 179.89-6.18 180.39-7.24 180.89-8.3 180.89-9.64L180.89-9.64Q180.89-11.13 180.27-12.17 179.65-13.21 178.67-13.94 177.69-14.67 176.54-15.14 175.38-15.6 174.3-15.94L174.3-15.94 168.95-17.46Q167.2-17.99 165.74-18.82 164.29-19.65 163.25-20.85 162.22-22.05 161.65-23.65 161.09-25.24 161.09-27.34L161.09-27.34Q161.09-29.47 161.92-31.32 162.75-33.18 164.36-34.57 165.98-35.96 168.31-36.76 170.64-37.55 173.64-37.55L173.64-37.55Q175.62-37.55 177.29-37.08 178.96-36.62 180.32-35.78 181.67-34.94 182.71-33.75 183.75-32.57 184.46-31.15L184.46-31.15 186.29-31.15 186.29-26.95 180.31-26.95ZM189.48-12.65L189.48-12.65Q189.51-15.65 190.45-18.12 191.39-20.58 193.07-22.35 194.76-24.12 197.08-25.07 199.4-26.03 202.18-26.03L202.18-26.03Q204.99-26.03 207.32-25.07 209.65-24.12 211.31-22.38 212.97-20.63 213.9-18.16 214.83-15.7 214.83-12.7L214.83-12.7Q214.83-9.74 213.9-7.26 212.97-4.79 211.31-3 209.65-1.22 207.32-0.23 204.99 0.76 202.18 0.76L202.18 0.76Q199.32 0.76 197-0.22 194.68-1.2 193.02-2.97 191.36-4.74 190.44-7.2 189.51-9.67 189.48-12.65ZM194.29-12.65L194.29-12.65Q194.29-10.47 194.92-8.72 195.54-6.96 196.63-5.73 197.71-4.49 199.14-3.82 200.57-3.15 202.18-3.15L202.18-3.15Q203.86-3.15 205.32-3.81 206.77-4.47 207.84-5.7 208.92-6.93 209.53-8.69 210.14-10.45 210.14-12.65L210.14-12.65Q210.14-14.94 209.53-16.72 208.92-18.51 207.86-19.7 206.79-20.9 205.33-21.51 203.86-22.12 202.18-22.12L202.18-22.12Q200.57-22.12 199.14-21.51 197.71-20.9 196.63-19.7 195.54-18.51 194.92-16.72 194.29-14.94 194.29-12.65ZM219.54-33.79L219.54-37.99 227.74-37.99 227.74-4.2 231.55-4.2 231.55 0 219.54 0 219.54-4.2 223.2-4.2 223.2-33.79 219.54-33.79ZM251.22-21.09L251.22-25.29 259.38-25.29 259.38-4.2 262.18-4.2 262.18 0 254.81 0 254.81-2.34Q253.1-1.03 251.09-0.29 249.07 0.44 246.78 0.44L246.78 0.44Q244.87 0.44 243.32-0.11 241.77-0.66 240.69-1.82 239.6-2.98 239.02-4.76 238.43-6.54 238.43-9.01L238.43-9.01 238.43-21.09 235.01-21.09 235.01-25.29 243.17-25.29 243.17-9.55Q243.17-6.64 244.51-5.15 245.85-3.66 248.37-3.66L248.37-3.66Q249.86-3.66 251.5-4.2 253.15-4.74 254.62-5.69L254.62-5.69 254.62-21.09 251.22-21.09ZM276.27-33.45L276.27-25.29 282.2-25.29 282.2-21.61 276.22-21.61 276.15-7.01Q276.15-5.52 276.49-4.59 276.83-3.66 277.59-3.31 278.34-2.95 279.3-2.95L279.3-2.95Q280.32-2.95 281.1-3.14 281.88-3.32 282.81-3.76L282.81-3.76 283.86-0.71Q282.69-0.1 281.4 0.26 280.1 0.61 278.34 0.61L278.34 0.61Q276.68 0.61 275.45 0.21 274.22-0.2 273.38-1.15 272.53-2.1 272.12-3.7 271.7-5.3 271.7-7.69L271.7-7.69 271.78-21.61 267.75-21.61 267.75-25.29 271.83-25.29 271.83-31.35 276.27-33.45ZM287.35-21.09L287.35-25.29 295.6-25.29 295.6-4.2 299.41-4.2 299.41 0 287.4 0 287.4-4.2 291.01-4.2 291.01-21.09 287.35-21.09ZM290.16-34.25L290.16-34.25Q290.16-34.89 290.41-35.46 290.67-36.04 291.1-36.46 291.53-36.89 292.11-37.15 292.7-37.4 293.36-37.4L293.36-37.4Q293.99-37.4 294.56-37.15 295.14-36.89 295.57-36.46 295.99-36.04 296.25-35.46 296.51-34.89 296.51-34.25L296.51-34.25Q296.51-33.59 296.25-33.01 295.99-32.42 295.57-31.97 295.14-31.52 294.56-31.26 293.99-31.01 293.36-31.01L293.36-31.01Q292.7-31.01 292.11-31.26 291.53-31.52 291.1-31.97 290.67-32.42 290.41-33.01 290.16-33.59 290.16-34.25ZM303.24-12.65L303.24-12.65Q303.27-15.65 304.21-18.12 305.15-20.58 306.83-22.35 308.51-24.12 310.83-25.07 313.15-26.03 315.94-26.03L315.94-26.03Q318.74-26.03 321.08-25.07 323.41-24.12 325.07-22.38 326.73-20.63 327.66-18.16 328.58-15.7 328.58-12.7L328.58-12.7Q328.58-9.74 327.66-7.26 326.73-4.79 325.07-3 323.41-1.22 321.08-0.23 318.74 0.76 315.94 0.76L315.94 0.76Q313.08 0.76 310.76-0.22 308.44-1.2 306.78-2.97 305.12-4.74 304.19-7.2 303.27-9.67 303.24-12.65ZM308.05-12.65L308.05-12.65Q308.05-10.47 308.67-8.72 309.3-6.96 310.38-5.73 311.47-4.49 312.9-3.82 314.33-3.15 315.94-3.15L315.94-3.15Q317.62-3.15 319.07-3.81 320.53-4.47 321.6-5.7 322.68-6.93 323.29-8.69 323.9-10.45 323.9-12.65L323.9-12.65Q323.9-14.94 323.29-16.72 322.68-18.51 321.61-19.7 320.55-20.9 319.09-21.51 317.62-22.12 315.94-22.12L315.94-22.12Q314.33-22.12 312.9-21.51 311.47-20.9 310.38-19.7 309.3-18.51 308.67-16.72 308.05-14.94 308.05-12.65ZM350.14 0L350.14-4.2 353.7-4.2 353.7-15.75Q353.7-18.65 352.23-20.15 350.75-21.66 347.99-21.66L347.99-21.66Q346.4-21.66 344.79-20.9 343.18-20.14 341.74-19.02L341.74-19.02 341.74-4.2 345.3-4.2 345.3 0 333.49 0 333.49-4.2 337-4.2 337-21.09 333.49-21.09 333.49-25.29 341.54-25.29 341.54-22.31 341.59-22.31Q342.4-23.02 343.31-23.66 344.23-24.29 345.23-24.76 346.23-25.22 347.32-25.49 348.41-25.76 349.6-25.76L349.6-25.76Q351.63-25.76 353.26-25.2 354.9-24.63 356.05-23.49 357.19-22.34 357.82-20.54 358.44-18.75 358.44-16.31L358.44-16.31 358.44-4.2 361.95-4.2 361.95 0 350.14 0ZM381.43-18.51Q381.43-19.53 380.96-20.25 380.48-20.97 379.73-21.42 378.97-21.88 378.04-22.08 377.11-22.29 376.23-22.29L376.23-22.29Q375.26-22.29 374.44-22.07 373.62-21.85 373.04-21.44 372.45-21.02 372.12-20.42 371.79-19.82 371.79-19.09L371.79-19.09Q371.79-17.82 372.56-17.08 373.33-16.33 375.14-15.7L375.14-15.7 379.99-13.99Q383.12-12.94 384.56-11.13 386-9.33 386-6.81L386-6.81Q386-5.13 385.33-3.72 384.66-2.32 383.42-1.33 382.19-0.34 380.46 0.21 378.72 0.76 376.6 0.76L376.6 0.76Q373.65 0.76 371.79-0.2 369.94-1.15 368.93-2.71L368.93-2.71 366.4-2.71 366.4-6.91 371.45-6.91Q371.45-5.86 371.9-5.11 372.35-4.37 373.1-3.91 373.84-3.44 374.78-3.22 375.72-3 376.7-3L376.7-3Q377.65-3 378.53-3.23 379.41-3.47 380.08-3.92 380.75-4.37 381.14-5 381.53-5.64 381.53-6.45L381.53-6.45Q381.53-7.67 380.74-8.52 379.95-9.38 378.04-10.06L378.04-10.06 373.21-11.87Q370.25-12.92 368.82-14.54 367.4-16.16 367.4-18.6L367.4-18.6Q367.4-20.21 367.99-21.58 368.59-22.95 369.73-23.94 370.86-24.93 372.5-25.49 374.13-26.05 376.23-26.05L376.23-26.05Q378.94-26.05 380.78-25.29 382.61-24.54 384.07-22.71L384.07-22.71 386.44-22.71 386.44-18.51 381.43-18.51Z" opacity="1" transform="matrix(1,0,0,1,0,0)" fill="#ffffff" class="slogan-text-1" data-fill-palette-color="secondary" id="text-1"></path></svg></g></svg></g></svg></g></svg></g><g transform="matrix(1,0,0,1,75.54432,0)"><svg viewBox="0 0 244.43135999999998 111.93682132564128" height="111.93682132564128" width="244.43135999999998"><g><svg xmlns="http://www.w3.org/2000/svg" xmlns:xlink="http://www.w3.org/1999/xlink" version="1.1" x="0" y="0" viewBox="1 27.277 97.06999999999998 44.45299999999999" enable-background="new 0 0 100 100" xml:space="preserve" height="111.93682132564128" width="244.43135999999998" class="icon-icon-0" data-fill-palette-color="accent" id="icon-0"><g fill="#0a8151" data-fill-palette-color="accent"><path fill-rule="evenodd" clip-rule="evenodd" fill="#ffffff" d="M36.748 68.037c-3.109 0-5.631-2.889-5.631-6.441 0-2.373 1.148-4.537 2.928-5.652 0.791-4.125 3.858-7.2 7.543-7.571-0.014-0.294-0.021-0.577-0.021-0.868 0-7.144 4.363-13.14 10.19-14.716-0.693-3.165-3.194-5.512-6.171-5.512-2.935 0-5.4 2.263-6.143 5.337-2.577-2.178-5.757-3.47-9.217-3.47-8.566 0-15.514 7.943-15.514 17.751 0 1.1 0.098 2.186 0.266 3.236-0.35-0.042-0.714-0.06-1.078-0.06-4.749 0-8.671 4.073-9.238 9.333C2.526 60.293 1 62.627 1 65.371c0 3.51 2.493 6.359 5.554 6.359h76.757c2.228 0 4.146-1.52 5.029-3.693H36.748z" data-fill-palette-color="accent"></path><path fill-rule="evenodd" clip-rule="evenodd" fill="#ffffff" d="M95.238 58.367h-2.144v-1.604c0-2.633-1.778-4.672-3.957-4.672-0.343 0-0.687 0.057-1.022 0.162l-1.842 0.545 0.084-2.17c0.007-0.183 0.014-0.371 0.014-0.557 0-5.943-4.23-10.783-9.427-10.783-1.786 0-3.523 0.574-5.029 1.66l-3.04 2.203 0.946-3.976c0.076-0.343 0.119-0.7 0.119-1.061 0-2.182-1.549-3.954-3.453-3.954-1.548 0-2.921 1.19-3.327 2.89l-0.546 2.248-1.633-1.384c-1.806-1.52-3.95-2.328-6.198-2.328-5.743 0-10.422 5.348-10.422 11.917 0 0.742 0.063 1.478 0.175 2.186l0.351 2.136-1.892-0.256c-0.21-0.025-0.434-0.039-0.65-0.039-2.872 0-5.31 2.451-5.652 5.715l-0.105 0.975-0.812 0.336c-1.113 0.459-1.87 1.682-1.87 3.047 0 1.785 1.274 3.242 2.844 3.242h58.49c1.562 0 2.83-1.457 2.83-3.242S96.8 58.367 95.238 58.367z" data-fill-palette-color="accent"></path></g></svg></g></svg></g><g></g></svg></g></svg></g><defs></defs></svg><rect width="245.09686797147427" height="247.2" fill="none" stroke="none" visibility="hidden"></rect></g></svg></g></svg>