<svg xmlns="http://www.w3.org/2000/svg" version="1.1" xmlns:xlink="http://www.w3.org/1999/xlink" xmlns:svgjs="http://svgjs.dev/svgjs" width="1500" height="1398" viewBox="0 0 1500 1398"><g transform="matrix(1,0,0,1,-0.5944037774013395,0.5659919028339573)"><svg viewBox="0 0 265 247" data-background-color="#1f2937" preserveAspectRatio="xMidYMid meet" height="1398" width="1500" xmlns="http://www.w3.org/2000/svg" xmlns:xlink="http://www.w3.org/1999/xlink"><g id="tight-bounds" transform="matrix(1,0,0,1,0.10501133400757112,-0.09999999999999432)"><svg viewBox="0 0 264.78997733198486 247.2" height="247.2" width="264.78997733198486"><g><svg viewBox="0 0 264.78997733198486 247.2" height="247.2" width="264.78997733198486"><g><svg viewBox="0 0 264.78997733198486 247.2" height="247.2" width="264.78997733198486"><g><svg viewBox="0 0 395.52 369.2456375620896" height="247.2" width="264.78997733198486"><g transform="matrix(1,0,0,1,0,136.42947444685376)"><svg viewBox="0 0 395.52 232.81616311523584" height="232.81616311523584" width="395.52"><g id="textblocktransform"><svg viewBox="0 0 395.52 232.81616311523584" height="232.81616311523584" width="395.52" id="textblock"><g><svg viewBox="0 0 395.52 167.8452696006995" height="167.8452696006995" width="395.52"><g transform="matrix(1,0,0,1,0,0)"><svg width="395.52" viewBox="1.29 -35.55 83.77 35.55" height="167.8452696006995" data-palette-color="#9e7c47"><path d="M12.6 0L1.29 0 1.29-3.76 3.88-4.13 15.65-35.55 21.63-35.55 33.25-4.13 35.84-3.76 35.84 0 24.54 0 24.54-3.76 27.08-4.22 25.2-9.81 11.96-9.81 10.03-4.22 12.6-3.76 12.6 0ZM18.19-27.64L13.57-14.53 23.61-14.53 18.99-27.69 18.68-28.64 18.53-28.64 18.19-27.64ZM52.78 0L38.89 0 38.89-3.76 42.75-4.49 42.75-31.03 38.89-31.76 38.89-35.55 42.75-35.55 51.56-35.55 61.98-9.84 62.13-9.84 72.24-35.55 85.06-35.55 85.06-31.76 81.17-31.03 81.17-4.49 85.06-3.76 85.06 0 71.16 0 71.16-3.76 75.24-4.49 75.24-12.77 75.29-28.32 75.17-28.34 64.16-0.81 59.69-0.81 48.36-28.2 48.24-28.17 48.56-13.18 48.56-4.49 52.78-3.76 52.78 0Z" opacity="1" transform="matrix(1,0,0,1,0,0)" fill="#9e7c47" class="wordmark-text-0" data-fill-palette-color="primary" id="text-0"></path></svg></g></svg></g><g transform="matrix(1,0,0,1,0,192.33792272191198)"><svg viewBox="0 0 395.52 40.47824039332384" height="40.47824039332384" width="395.52"><g transform="matrix(1,0,0,1,0,0)"><svg width="395.52" viewBox="2.15 -39 386.42 39.55" height="40.47824039332384" data-palette-color="#0a8151"><path d="M18.85-33.05L18.85-33.05Q16.95-33.05 15.23-32.25 13.5-31.45 12.45-29.95L12.45-29.95Q11.1-28 10.18-25.08 9.25-22.15 9.25-18.6L9.25-18.6Q9.25-15.05 10-11.95 10.75-8.85 12.1-6.75L12.1-6.75Q13.2-5.05 15.08-4.25 16.95-3.45 19.3-3.45L19.3-3.45Q27.7-3.45 29.15-11.9L29.15-11.9 33.4-11.9Q30.95 0.5 18.2 0.5L18.2 0.5Q11.3 0.5 7.2-3.5L7.2-3.5Q4.75-5.9 3.45-9.55 2.15-13.2 2.15-17.65L2.15-17.65Q2.15-22.7 3.8-26.8 5.45-30.9 8.45-33.35L8.45-33.35Q12.25-36.5 18.5-36.5L18.5-36.5Q21.6-36.5 23.55-35.7 25.5-34.9 27.4-32.85L27.4-32.85 28.4-36 32.65-36 32.65-24.2 28.1-24.2Q27.4-28.6 24.98-30.83 22.55-33.05 18.85-33.05ZM36-2.85L39.85-3.8 39.85-35.2 36-36.15 36-39 46.2-39 46.2-3.8 50.05-2.85 50.05 0 36 0 36-2.85ZM79.05-13.5L79.05-13.5Q79.05-10.3 78.12-7.48 77.2-4.65 75.45-2.75L75.45-2.75Q73.8-1 71.47-0.25 69.15 0.5 66.05 0.5L66.05 0.5Q62.95 0.5 60.62-0.25 58.3-1 56.65-2.75L56.65-2.75Q54.9-4.65 53.97-7.48 53.05-10.3 53.05-13.5L53.05-13.5Q53.05-16.7 53.97-19.55 54.9-22.4 56.65-24.25L56.65-24.25Q58.3-26 60.62-26.75 62.95-27.5 66.05-27.5L66.05-27.5Q69.15-27.5 71.47-26.75 73.8-26 75.45-24.25L75.45-24.25Q77.2-22.4 78.12-19.55 79.05-16.7 79.05-13.5ZM61.5-4.85L61.5-4.85Q62.2-3.85 63.32-3.35 64.45-2.85 66.05-2.85L66.05-2.85Q67.65-2.85 68.8-3.35 69.95-3.85 70.6-4.85L70.6-4.85Q72.2-7.3 72.2-13.5L72.2-13.5Q72.2-16.65 71.8-18.8 71.4-20.95 70.6-22.15L70.6-22.15Q69.95-23.15 68.8-23.65 67.65-24.15 66.05-24.15L66.05-24.15Q64.45-24.15 63.32-23.65 62.2-23.15 61.5-22.15L61.5-22.15Q59.9-19.7 59.9-13.5L59.9-13.5Q59.9-7.3 61.5-4.85ZM82.09-27L91.79-27 91.79-13.6Q91.79-10.4 91.94-8.8 92.09-7.2 92.39-6.25L92.39-6.25Q92.79-5.05 93.72-4.42 94.64-3.8 95.59-3.8L95.59-3.8Q96.94-3.8 98.04-4.3 99.14-4.8 100.09-5.65L100.09-5.65Q102.14-7.5 102.34-11.4L102.34-11.4 102.34-23.25 97.99-24.2 97.99-27 108.69-27 108.69-3.75 112.54-2.8 112.54 0 103.29 0.5 102.74-5 102.54-5Q101.09-2.45 98.59-0.98 96.09 0.5 93.24 0.5L93.24 0.5Q91.34 0.5 89.77-0.23 88.19-0.95 87.29-2.2L87.29-2.2Q86.34-3.6 85.89-6.15 85.44-8.7 85.44-12.95L85.44-12.95 85.44-23.25 82.09-24.2 82.09-27ZM115.39-13.45L115.39-13.45Q115.39-16.75 116.32-19.63 117.24-22.5 118.79-24.25L118.79-24.25Q120.24-25.85 122.24-26.68 124.24-27.5 126.74-27.5L126.74-27.5Q129.09-27.5 130.89-26.65 132.69-25.8 134.14-23.6L134.14-23.6 134.14-35.25 130.29-36.2 130.29-39 140.49-39 140.49-3.75 144.34-2.8 144.34 0 135.09 0.5 134.69-3.6Q133.14-1.3 131.19-0.4 129.24 0.5 126.64 0.5L126.64 0.5Q123.89 0.5 122.02-0.33 120.14-1.15 118.84-2.65L118.84-2.65Q117.29-4.4 116.34-7.23 115.39-10.05 115.39-13.45ZM134.14-13.3L134.14-13.3Q134.14-16.2 133.64-18.35 133.14-20.5 132.44-21.6L132.44-21.6Q131.69-22.8 130.56-23.45 129.44-24.1 127.84-24.1L127.84-24.1Q126.64-24.1 125.39-23.6 124.14-23.1 123.44-21.8L123.44-21.8Q122.79-20.6 122.47-18.5 122.14-16.4 122.14-13.9L122.14-13.9Q122.14-11 122.54-8.85 122.94-6.7 123.54-5.55L123.54-5.55Q124.24-4.3 125.47-3.58 126.69-2.85 128.09-2.85L128.09-2.85Q129.24-2.85 130.44-3.38 131.64-3.9 132.44-5.15L132.44-5.15Q133.24-6.45 133.69-8.58 134.14-10.7 134.14-13.3ZM173.19 0.55L173.19 0.55Q170.34 0.55 168.36-0.28 166.39-1.1 164.84-2.9L164.84-2.9 164.29 0 159.99 0 159.99-12.1 164.54-12.1Q164.84-7.1 166.99-5.03 169.14-2.95 172.69-2.95L172.69-2.95Q175.54-2.95 177.24-4.15 178.94-5.35 178.94-7.85L178.94-7.85Q178.94-9.9 177.81-11.23 176.69-12.55 174.66-13.58 172.64-14.6 169.94-15.7L169.94-15.7Q166.84-17 164.64-18.35 162.44-19.7 161.29-21.6 160.14-23.5 160.14-26.4L160.14-26.4Q160.14-31.25 163.11-33.9 166.09-36.55 171.09-36.55L171.09-36.55Q176.04-36.55 179.14-33.75L179.14-33.75 179.54-36 183.84-36 183.84-23.9 179.49-23.9Q179.49-28.6 177.74-30.85 175.99-33.1 172.34-33.1L172.34-33.1Q166.69-33.1 166.69-27.75L166.69-27.75Q166.69-26 167.39-24.95 168.09-23.9 169.71-23 171.34-22.1 174.14-20.85L174.14-20.85Q178.34-18.95 180.84-17.3 183.34-15.65 184.41-13.83 185.49-12 185.49-9.55L185.49-9.55Q185.49-6.2 183.84-3.95 182.19-1.7 179.41-0.58 176.64 0.55 173.19 0.55ZM215.58-13.5L215.58-13.5Q215.58-10.3 214.66-7.48 213.73-4.65 211.98-2.75L211.98-2.75Q210.33-1 208.01-0.25 205.68 0.5 202.58 0.5L202.58 0.5Q199.48 0.5 197.16-0.25 194.83-1 193.18-2.75L193.18-2.75Q191.43-4.65 190.51-7.48 189.58-10.3 189.58-13.5L189.58-13.5Q189.58-16.7 190.51-19.55 191.43-22.4 193.18-24.25L193.18-24.25Q194.83-26 197.16-26.75 199.48-27.5 202.58-27.5L202.58-27.5Q205.68-27.5 208.01-26.75 210.33-26 211.98-24.25L211.98-24.25Q213.73-22.4 214.66-19.55 215.58-16.7 215.58-13.5ZM198.03-4.85L198.03-4.85Q198.73-3.85 199.86-3.35 200.98-2.85 202.58-2.85L202.58-2.85Q204.18-2.85 205.33-3.35 206.48-3.85 207.13-4.85L207.13-4.85Q208.73-7.3 208.73-13.5L208.73-13.5Q208.73-16.65 208.33-18.8 207.93-20.95 207.13-22.15L207.13-22.15Q206.48-23.15 205.33-23.65 204.18-24.15 202.58-24.15L202.58-24.15Q200.98-24.15 199.86-23.65 198.73-23.15 198.03-22.15L198.03-22.15Q196.43-19.7 196.43-13.5L196.43-13.5Q196.43-7.3 198.03-4.85ZM218.53-2.85L222.38-3.8 222.38-35.2 218.53-36.15 218.53-39 228.73-39 228.73-3.8 232.58-2.85 232.58 0 218.53 0 218.53-2.85ZM234.93-27L244.63-27 244.63-13.6Q244.63-10.4 244.78-8.8 244.93-7.2 245.23-6.25L245.23-6.25Q245.63-5.05 246.55-4.42 247.48-3.8 248.43-3.8L248.43-3.8Q249.78-3.8 250.88-4.3 251.98-4.8 252.93-5.65L252.93-5.65Q254.98-7.5 255.18-11.4L255.18-11.4 255.18-23.25 250.83-24.2 250.83-27 261.53-27 261.53-3.75 265.38-2.8 265.38 0 256.13 0.5 255.58-5 255.38-5Q253.93-2.45 251.43-0.98 248.93 0.5 246.08 0.5L246.08 0.5Q244.18 0.5 242.6-0.23 241.03-0.95 240.13-2.2L240.13-2.2Q239.18-3.6 238.73-6.15 238.28-8.7 238.28-12.95L238.28-12.95 238.28-23.25 234.93-24.2 234.93-27ZM271.43-23.75L266.58-23.75 266.58-26.3 271.48-27 272.08-33.2 277.78-34 277.78-27 284.18-27 284.18-23.75 277.78-23.75 277.78-7.4Q277.78-5.7 277.83-5.08 277.88-4.45 278.03-4.05L278.03-4.05Q278.18-3.75 278.58-3.6 278.98-3.45 279.88-3.45L279.88-3.45 283.38-3.45 283.38-1.25Q280.48-0.35 278.25 0.08 276.03 0.5 274.73 0.5L274.73 0.5Q272.48 0.5 271.83-1.35L271.83-1.35Q271.63-1.95 271.53-2.9 271.43-3.85 271.43-5.7L271.43-5.7 271.43-23.75ZM289.97-3.75L289.97-23.25 286.12-24.2 286.12-27 296.32-27 296.32-3.75 300.17-2.8 300.17 0 286.12 0 286.12-2.8 289.97-3.75ZM289.42-34.6L289.42-34.6Q289.42-36.2 290.4-37.2 291.37-38.2 293.12-38.2L293.12-38.2Q294.87-38.2 295.87-37.2 296.87-36.2 296.87-34.6L296.87-34.6Q296.87-33.05 295.9-32.05 294.92-31.05 293.12-31.05L293.12-31.05Q291.32-31.05 290.37-32.02 289.42-33 289.42-34.6ZM328.97-13.5L328.97-13.5Q328.97-10.3 328.05-7.48 327.12-4.65 325.37-2.75L325.37-2.75Q323.72-1 321.4-0.25 319.07 0.5 315.97 0.5L315.97 0.5Q312.87 0.5 310.55-0.25 308.22-1 306.57-2.75L306.57-2.75Q304.82-4.65 303.9-7.48 302.97-10.3 302.97-13.5L302.97-13.5Q302.97-16.7 303.9-19.55 304.82-22.4 306.57-24.25L306.57-24.25Q308.22-26 310.55-26.75 312.87-27.5 315.97-27.5L315.97-27.5Q319.07-27.5 321.4-26.75 323.72-26 325.37-24.25L325.37-24.25Q327.12-22.4 328.05-19.55 328.97-16.7 328.97-13.5ZM311.42-4.85L311.42-4.85Q312.12-3.85 313.25-3.35 314.37-2.85 315.97-2.85L315.97-2.85Q317.57-2.85 318.72-3.35 319.87-3.85 320.52-4.85L320.52-4.85Q322.12-7.3 322.12-13.5L322.12-13.5Q322.12-16.65 321.72-18.8 321.32-20.95 320.52-22.15L320.52-22.15Q319.87-23.15 318.72-23.65 317.57-24.15 315.97-24.15L315.97-24.15Q314.37-24.15 313.25-23.65 312.12-23.15 311.42-22.15L311.42-22.15Q309.82-19.7 309.82-13.5L309.82-13.5Q309.82-7.3 311.42-4.85ZM332.37-2.8L336.22-3.75 336.22-23.25 332.37-24.2 332.37-27 341.07-27 342.17-22 342.37-22Q343.87-24.55 346.42-26.03 348.97-27.5 351.87-27.5L351.87-27.5Q356.02-27.5 358.02-24.8L358.02-24.8Q359.02-23.4 359.44-20.88 359.87-18.35 359.87-14.05L359.87-14.05 359.87-3.75 363.72-2.8 363.72 0 350.17 0 350.17-2.8 353.52-3.75 353.52-13.4Q353.52-16.4 353.34-18.07 353.17-19.75 352.72-20.75L352.72-20.75Q352.17-22.05 351.22-22.55 350.27-23.05 348.97-23.05L348.97-23.05Q346.52-23.05 344.82-21.45L344.82-21.45Q342.77-19.55 342.57-15.6L342.57-15.6 342.57-3.75 345.92-2.8 345.92 0 332.37 0 332.37-2.8ZM376.67-2.55L376.67-2.55Q379.17-2.55 380.94-3.5 382.72-4.45 382.72-6.15L382.72-6.15Q382.72-7.5 381.64-8.4 380.57-9.3 378.94-9.9 377.32-10.5 375.62-11L375.62-11Q373.57-11.65 371.67-12.65 369.77-13.65 368.57-15.33 367.37-17 367.37-19.55L367.37-19.55Q367.37-23.15 369.99-25.33 372.62-27.5 377.42-27.5L377.42-27.5Q382.02-27.5 384.74-25.58 387.47-23.65 387.47-20.6L387.47-20.6Q387.47-18.9 386.54-17.98 385.62-17.05 384.02-17.05L384.02-17.05Q382.42-17.05 381.52-17.82 380.62-18.6 380.62-19.65L380.62-19.65Q380.62-20.5 381.12-21.3 381.62-22.1 382.42-22.45L382.42-22.45Q381.77-23.4 380.57-23.93 379.37-24.45 377.62-24.45L377.62-24.45Q375.32-24.45 374.14-23.48 372.97-22.5 372.97-20.75L372.97-20.75Q372.97-19.45 373.57-18.57 374.17-17.7 375.24-17.15 376.32-16.6 377.77-16.15L377.77-16.15Q379.77-15.55 381.69-14.9 383.62-14.25 385.17-13.3 386.72-12.35 387.64-10.98 388.57-9.6 388.57-7.65L388.57-7.65Q388.57-5.05 386.97-3.23 385.37-1.4 382.64-0.45 379.92 0.5 376.52 0.5L376.52 0.5Q371.77 0.5 369.07-1.28 366.37-3.05 366.37-6L366.37-6Q366.37-8.05 367.52-9.2 368.67-10.35 370.27-10.35L370.27-10.35Q371.47-10.35 372.49-9.68 373.52-9 373.52-7.75L373.52-7.75Q373.52-6.85 372.97-6 372.42-5.15 371.72-4.75L371.72-4.75Q372.22-3.95 373.37-3.25 374.52-2.55 376.67-2.55Z" opacity="1" transform="matrix(1,0,0,1,0,0)" fill="#0a8151" class="slogan-text-1" data-fill-palette-color="secondary" id="text-1"></path></svg></g></svg></g></svg></g></svg></g><g transform="matrix(1,0,0,1,75.54432,0)"><svg viewBox="0 0 244.43135999999998 111.93682132564128" height="111.93682132564128" width="244.43135999999998"><g><svg xmlns="http://www.w3.org/2000/svg" xmlns:xlink="http://www.w3.org/1999/xlink" version="1.1" x="0" y="0" viewBox="1 27.277 97.06999999999998 44.45299999999999" enable-background="new 0 0 100 100" xml:space="preserve" height="111.93682132564128" width="244.43135999999998" class="icon-icon-0" data-fill-palette-color="accent" id="icon-0"><g fill="#0a8151" data-fill-palette-color="accent"><path fill-rule="evenodd" clip-rule="evenodd" fill="#0a8151" d="M36.748 68.037c-3.109 0-5.631-2.889-5.631-6.441 0-2.373 1.148-4.537 2.928-5.652 0.791-4.125 3.858-7.2 7.543-7.571-0.014-0.294-0.021-0.577-0.021-0.868 0-7.144 4.363-13.14 10.19-14.716-0.693-3.165-3.194-5.512-6.171-5.512-2.935 0-5.4 2.263-6.143 5.337-2.577-2.178-5.757-3.47-9.217-3.47-8.566 0-15.514 7.943-15.514 17.751 0 1.1 0.098 2.186 0.266 3.236-0.35-0.042-0.714-0.06-1.078-0.06-4.749 0-8.671 4.073-9.238 9.333C2.526 60.293 1 62.627 1 65.371c0 3.51 2.493 6.359 5.554 6.359h76.757c2.228 0 4.146-1.52 5.029-3.693H36.748z" data-fill-palette-color="accent"></path><path fill-rule="evenodd" clip-rule="evenodd" fill="#0a8151" d="M95.238 58.367h-2.144v-1.604c0-2.633-1.778-4.672-3.957-4.672-0.343 0-0.687 0.057-1.022 0.162l-1.842 0.545 0.084-2.17c0.007-0.183 0.014-0.371 0.014-0.557 0-5.943-4.23-10.783-9.427-10.783-1.786 0-3.523 0.574-5.029 1.66l-3.04 2.203 0.946-3.976c0.076-0.343 0.119-0.7 0.119-1.061 0-2.182-1.549-3.954-3.453-3.954-1.548 0-2.921 1.19-3.327 2.89l-0.546 2.248-1.633-1.384c-1.806-1.52-3.95-2.328-6.198-2.328-5.743 0-10.422 5.348-10.422 11.917 0 0.742 0.063 1.478 0.175 2.186l0.351 2.136-1.892-0.256c-0.21-0.025-0.434-0.039-0.65-0.039-2.872 0-5.31 2.451-5.652 5.715l-0.105 0.975-0.812 0.336c-1.113 0.459-1.87 1.682-1.87 3.047 0 1.785 1.274 3.242 2.844 3.242h58.49c1.562 0 2.83-1.457 2.83-3.242S96.8 58.367 95.238 58.367z" data-fill-palette-color="accent"></path></g></svg></g></svg></g><g></g></svg></g></svg></g></svg></g><defs></defs></svg><rect width="264.78997733198486" height="247.2" fill="none" stroke="none" visibility="hidden"></rect></g></svg></g></svg>